<svg xmlns="http://www.w3.org/2000/svg" viewBox="85 56 158 207">
<path fill="#133C3B" fill-rule="evenodd" d="M144.70 57.17 L 144.46 57.37 L 142.84 57.38 L 142.46 57.62 L 141.59 57.63 L 141.21 57.87 L 140.24 57.90 L 137.24 59.40 L 136.80 59.83 L 135.95 60.17 L 135.30 60.83 L 134.95 60.92 L 133.67 62.20 L 133.58 62.55 L 133.20 62.67 L 132.67 63.20 L 132.58 63.55 L 131.67 64.45 L 131.58 64.80 L 130.17 66.45 L 129.83 67.30 L 128.90 68.49 L 127.90 70.49 L 127.85 71.01 L 127.40 71.49 L 126.90 72.49 L 126.85 73.01 L 126.15 74.24 L 126.12 74.71 L 125.88 75.09 L 125.87 76.96 L 125.63 77.29 L 125.62 78.21 L 125.13 79.29 L 125.12 80.46 L 124.88 80.84 L 124.88 82.91 L 124.63 83.34 L 124.63 85.66 L 124.38 86.04 L 124.38 88.16 L 124.13 88.59 L 124.13 93.16 L 124.37 93.54 L 124.38 95.66 L 124.62 96.04 L 124.63 97.66 L 124.88 98.09 L 124.88 100.41 L 125.12 100.79 L 125.13 101.96 L 125.42 102.55 L 125.74 102.85 L 125.96 102.87 L 126.60 102.26 L 126.63 101.54 L 126.87 101.21 L 126.88 100.29 L 127.10 100.01 L 127.13 99.54 L 127.35 99.26 L 127.38 98.79 L 127.87 97.71 L 127.88 96.84 L 128.12 96.46 L 128.13 95.79 L 128.60 95.01 L 128.63 94.29 L 128.87 93.96 L 128.88 93.04 L 129.10 92.76 L 129.15 92.24 L 129.60 91.51 L 129.63 91.04 L 129.87 90.71 L 129.88 90.04 L 130.10 89.76 L 130.15 89.24 L 130.60 88.51 L 131.15 86.24 L 131.60 85.76 L 131.90 84.49 L 133.15 81.99 L 133.60 81.51 L 134.15 79.99 L 134.58 79.55 L 134.92 78.70 L 135.58 78.05 L 135.92 77.20 L 136.83 76.30 L 136.92 75.95 L 138.95 73.92 L 139.30 73.83 L 140.24 72.90 L 140.76 72.85 L 142.49 71.90 L 143.96 71.87 L 144.34 71.63 L 144.79 71.87 L 145.96 71.88 L 146.24 72.10 L 146.76 72.15 L 148.76 73.15 L 149.24 73.60 L 150.55 74.17 L 151.45 75.08 L 151.80 75.17 L 151.95 75.58 L 152.30 75.67 L 153.45 76.83 L 153.80 76.92 L 156.70 79.83 L 157.05 79.92 L 157.58 80.45 L 157.67 80.80 L 159.70 82.83 L 160.05 82.92 L 162.20 85.08 L 162.55 85.17 L 162.99 85.60 L 163.54 85.87 L 164.01 85.90 L 165.24 86.60 L 165.71 86.63 L 166.09 86.88 L 167.66 86.88 L 168.04 87.12 L 168.66 87.13 L 169.04 86.88 L 170.21 86.87 L 170.76 86.60 L 171.20 86.17 L 171.55 86.08 L 172.58 85.05 L 172.87 84.46 L 172.90 83.99 L 173.60 82.76 L 173.63 82.29 L 173.88 81.91 L 173.88 77.84 L 173.63 77.46 L 173.60 76.74 L 173.17 76.30 L 172.90 75.76 L 172.87 75.04 L 172.60 74.49 L 172.17 74.05 L 171.85 73.24 L 171.40 72.76 L 170.83 71.45 L 169.92 70.55 L 169.83 70.20 L 169.17 69.55 L 169.08 69.20 L 165.80 65.92 L 165.45 65.83 L 163.30 63.92 L 162.95 63.83 L 161.76 62.90 L 161.24 62.85 L 160.55 62.17 L 159.74 61.85 L 159.26 61.40 L 157.49 60.60 L 157.05 60.17 L 156.51 59.90 L 155.74 59.85 L 154.01 58.90 L 152.74 58.60 L 151.46 57.88 L 149.84 57.88 L 149.46 57.63 L 148.29 57.62 L 147.91 57.38 L 146.34 57.38 L 145.91 57.13 L 144.74 57.15 Z M195.45 62.67 L 195.21 62.87 L 193.59 62.88 L 193.21 63.12 L 192.74 63.15 L 192.01 63.60 L 191.49 63.65 L 190.49 64.15 L 189.76 64.85 L 189.20 64.92 L 188.30 65.83 L 187.95 65.92 L 187.83 66.30 L 187.55 66.58 L 187.20 66.67 L 185.17 68.95 L 184.88 69.54 L 184.85 70.01 L 183.90 71.74 L 183.87 72.21 L 183.65 72.49 L 183.60 73.01 L 183.15 73.74 L 183.12 74.46 L 182.88 74.79 L 182.88 79.66 L 183.12 80.04 L 183.13 80.71 L 183.35 80.99 L 183.38 81.46 L 183.60 81.74 L 183.90 83.01 L 184.17 83.55 L 184.60 83.99 L 184.65 84.51 L 185.15 85.51 L 185.83 86.20 L 185.92 86.55 L 186.83 87.45 L 186.92 87.80 L 187.30 87.92 L 187.58 88.20 L 187.70 88.58 L 188.80 89.17 L 189.45 89.83 L 191.49 90.85 L 191.96 90.88 L 192.29 91.12 L 192.96 91.13 L 194.04 91.62 L 194.96 91.63 L 195.29 91.87 L 197.16 91.88 L 197.54 91.63 L 198.96 91.62 L 199.24 91.40 L 199.71 91.37 L 200.79 90.88 L 201.51 90.85 L 202.51 90.35 L 202.95 89.92 L 203.80 89.58 L 204.45 88.92 L 204.80 88.83 L 206.83 86.80 L 206.92 86.45 L 207.83 85.55 L 208.85 83.51 L 208.90 82.99 L 209.60 81.76 L 209.63 81.29 L 209.87 80.96 L 209.88 80.04 L 210.12 79.71 L 210.13 78.79 L 210.38 78.41 L 210.38 76.59 L 210.13 76.21 L 210.13 74.84 L 209.88 74.46 L 209.87 73.54 L 209.65 73.26 L 209.60 72.74 L 208.90 71.51 L 208.85 70.99 L 207.85 68.99 L 207.17 68.30 L 206.58 67.20 L 205.30 65.92 L 204.95 65.83 L 204.30 65.17 L 203.95 65.08 L 202.80 64.17 L 200.76 63.15 L 200.29 63.12 L 199.91 62.88 L 197.59 62.88 L 197.16 62.63 L 195.49 62.65 Z M241.20 88.92 L 240.88 89.54 L 240.87 90.46 L 240.65 90.74 L 240.60 91.26 L 240.15 91.74 L 240.12 92.21 L 239.88 92.54 L 239.85 93.26 L 239.58 93.80 L 239.15 94.24 L 238.88 94.79 L 238.85 95.26 L 237.85 97.26 L 236.90 98.49 L 236.85 99.26 L 235.92 100.45 L 235.58 101.30 L 234.17 102.95 L 233.85 103.76 L 233.17 104.45 L 233.08 104.80 L 231.92 105.95 L 231.83 106.30 L 231.55 106.58 L 231.20 106.67 L 230.92 106.95 L 230.83 107.30 L 228.55 109.58 L 228.20 109.67 L 227.67 110.20 L 227.55 110.58 L 227.20 110.67 L 226.05 111.83 L 225.70 111.92 L 223.55 113.83 L 223.20 113.92 L 222.55 114.58 L 222.20 114.67 L 221.05 115.58 L 220.46 115.87 L 219.99 115.90 L 218.46 116.87 L 217.29 116.88 L 216.91 117.13 L 215.84 117.13 L 215.46 116.88 L 214.74 116.85 L 214.20 116.58 L 213.80 116.17 L 213.45 116.08 L 213.05 115.67 L 212.70 115.58 L 211.67 114.55 L 211.58 114.20 L 210.17 112.80 L 209.60 111.49 L 209.17 111.05 L 208.90 110.51 L 208.60 109.24 L 208.15 108.76 L 208.12 108.29 L 207.88 107.96 L 207.87 107.04 L 207.65 106.76 L 207.60 106.24 L 207.15 105.76 L 207.12 105.29 L 206.88 104.96 L 206.85 103.99 L 205.90 102.26 L 205.85 101.49 L 204.60 98.99 L 204.17 98.55 L 203.83 97.70 L 202.92 96.80 L 202.83 96.45 L 202.30 95.92 L 201.95 95.83 L 201.05 94.92 L 200.54 94.87 L 200.26 94.65 L 199.79 94.62 L 199.41 94.38 L 197.84 94.38 L 197.46 94.62 L 196.99 94.65 L 196.45 94.92 L 194.67 96.70 L 194.58 97.05 L 193.90 97.74 L 193.85 98.26 L 193.15 99.49 L 193.12 99.96 L 192.88 100.29 L 192.87 101.21 L 192.63 101.59 L 192.62 102.71 L 192.38 103.09 L 192.38 106.41 L 192.62 106.79 L 192.63 107.96 L 192.87 108.29 L 192.88 109.46 L 193.10 109.74 L 193.13 110.21 L 193.35 110.49 L 193.38 110.96 L 193.87 112.04 L 193.90 113.01 L 194.85 114.74 L 194.88 115.21 L 195.15 115.76 L 195.60 116.24 L 197.17 119.55 L 197.83 120.20 L 197.92 120.55 L 198.58 121.20 L 199.17 122.30 L 200.08 123.20 L 200.17 123.55 L 204.20 127.58 L 205.05 127.92 L 205.70 128.58 L 206.55 128.92 L 207.20 129.58 L 207.74 129.85 L 208.26 129.90 L 209.49 130.60 L 210.46 130.63 L 210.79 130.87 L 214.41 130.88 L 214.79 130.63 L 215.96 130.62 L 216.24 130.40 L 216.71 130.37 L 216.99 130.15 L 218.26 129.85 L 218.80 129.58 L 219.24 129.15 L 219.79 128.88 L 220.26 128.85 L 220.74 128.40 L 222.51 127.60 L 222.95 127.17 L 223.76 126.85 L 224.20 126.42 L 224.55 126.33 L 225.70 125.17 L 226.80 124.58 L 227.83 123.55 L 227.92 123.20 L 228.20 122.92 L 228.55 122.83 L 230.83 120.55 L 230.92 120.20 L 232.58 118.55 L 232.92 117.70 L 233.58 117.05 L 233.92 116.20 L 234.60 115.51 L 235.17 114.20 L 235.83 113.55 L 236.15 112.74 L 236.60 112.26 L 236.90 110.99 L 237.42 109.95 L 237.85 109.51 L 237.90 108.99 L 238.85 107.26 L 238.90 106.49 L 239.60 105.26 L 239.63 104.79 L 239.87 104.46 L 239.88 103.79 L 240.60 102.51 L 240.63 102.04 L 240.87 101.71 L 240.88 101.04 L 241.12 100.71 L 241.13 100.04 L 241.60 99.26 L 241.63 98.54 L 241.87 98.21 L 241.88 96.34 L 242.13 95.91 L 242.13 91.34 L 241.88 90.91 L 241.85 89.24 L 241.51 88.90 L 241.24 88.90 Z M135.45 113.92 L 133.45 114.92 L 131.92 116.45 L 131.15 117.99 L 131.12 118.46 L 130.88 118.84 L 130.87 120.21 L 130.63 120.59 L 130.63 123.66 L 130.87 124.04 L 130.88 125.16 L 131.12 125.54 L 131.15 126.26 L 132.15 128.26 L 132.60 128.74 L 132.92 129.55 L 133.83 130.45 L 133.92 130.80 L 134.30 130.92 L 134.83 131.45 L 134.92 131.80 L 135.30 131.92 L 135.83 132.45 L 135.92 132.80 L 136.30 132.92 L 136.58 133.20 L 136.67 133.55 L 137.35 134.24 L 137.37 134.96 L 137.08 135.55 L 136.67 135.95 L 136.58 136.30 L 134.92 137.95 L 134.83 138.30 L 133.92 139.20 L 133.83 139.55 L 132.17 141.20 L 132.08 141.55 L 131.17 142.45 L 131.08 142.80 L 128.17 145.95 L 128.08 146.30 L 125.92 148.45 L 125.83 148.80 L 123.17 151.45 L 123.08 151.80 L 121.92 152.95 L 121.83 153.30 L 119.92 155.20 L 119.83 155.55 L 117.17 158.20 L 117.08 158.55 L 114.92 160.70 L 114.83 161.05 L 111.92 163.95 L 111.83 164.30 L 110.17 165.95 L 110.08 166.30 L 107.92 168.45 L 107.83 168.80 L 106.92 169.70 L 106.83 170.05 L 104.92 171.95 L 104.83 172.30 L 102.92 174.20 L 102.83 174.55 L 101.92 175.45 L 101.83 175.80 L 99.92 177.70 L 99.58 178.55 L 99.20 178.67 L 98.67 179.20 L 98.58 179.55 L 98.20 179.67 L 97.92 179.95 L 97.83 180.30 L 96.92 181.20 L 96.83 181.55 L 94.92 183.45 L 94.83 183.80 L 91.92 186.70 L 91.83 187.05 L 87.92 190.95 L 87.83 191.30 L 86.65 192.49 L 86.38 193.04 L 86.40 193.51 L 86.59 193.63 L 87.26 193.60 L 87.74 193.15 L 89.05 192.58 L 89.74 191.90 L 90.30 191.83 L 90.95 191.17 L 91.80 190.83 L 92.95 189.92 L 93.55 189.83 L 94.20 189.17 L 95.05 188.83 L 95.70 188.17 L 97.05 187.58 L 98.70 186.17 L 99.55 185.83 L 100.24 185.15 L 101.55 184.58 L 102.20 183.92 L 102.55 183.83 L 103.45 182.92 L 104.26 182.60 L 104.70 182.17 L 105.55 181.83 L 106.45 180.92 L 107.30 180.58 L 108.95 179.17 L 110.30 178.58 L 111.20 177.67 L 111.55 177.58 L 112.20 176.92 L 112.76 176.85 L 113.95 175.92 L 114.80 175.58 L 114.95 175.17 L 115.80 174.83 L 116.49 174.15 L 117.80 173.58 L 118.45 172.92 L 119.30 172.58 L 120.95 171.17 L 121.54 170.88 L 122.05 170.83 L 122.70 170.17 L 123.55 169.83 L 124.20 169.17 L 125.05 168.83 L 125.70 168.17 L 127.05 167.58 L 127.70 166.92 L 128.55 166.58 L 129.20 165.92 L 129.55 165.83 L 130.74 164.90 L 131.55 164.58 L 132.20 163.92 L 133.05 163.58 L 133.70 162.92 L 134.05 162.83 L 135.20 161.92 L 136.05 161.58 L 136.70 160.92 L 137.05 160.83 L 137.45 160.42 L 137.80 160.33 L 138.45 159.67 L 139.55 159.08 L 140.45 158.17 L 141.55 157.58 L 142.45 156.67 L 142.80 156.58 L 142.95 156.17 L 143.80 155.83 L 144.70 154.92 L 145.05 154.83 L 148.20 151.67 L 148.55 151.58 L 148.83 151.30 L 148.95 150.92 L 149.30 150.83 L 149.95 150.17 L 150.30 150.08 L 151.20 149.17 L 151.55 149.08 L 152.20 148.42 L 152.55 148.33 L 153.20 147.67 L 153.55 147.58 L 153.67 147.20 L 153.95 146.92 L 154.51 146.85 L 154.73 146.66 L 155.04 146.87 L 155.76 146.90 L 156.30 147.17 L 156.74 147.60 L 157.55 147.92 L 158.45 148.83 L 159.55 149.42 L 161.20 151.08 L 161.60 151.24 L 161.87 151.79 L 161.90 152.26 L 162.12 152.54 L 162.12 154.21 L 161.58 155.30 L 160.67 156.20 L 160.58 156.55 L 159.05 158.08 L 158.70 158.17 L 158.55 158.58 L 157.45 159.17 L 156.80 159.83 L 155.95 160.17 L 155.30 160.83 L 154.74 160.90 L 153.51 161.85 L 153.04 161.88 L 152.49 162.15 L 152.05 162.58 L 151.20 162.92 L 150.55 163.58 L 149.96 163.87 L 149.49 163.90 L 148.76 164.60 L 145.99 165.90 L 145.30 166.58 L 143.99 167.15 L 143.51 167.60 L 141.99 168.15 L 141.30 168.83 L 140.49 169.15 L 140.01 169.60 L 138.74 170.15 L 138.26 170.60 L 137.71 170.87 L 137.24 170.90 L 136.70 171.17 L 136.26 171.60 L 134.95 172.17 L 134.51 172.60 L 133.96 172.87 L 133.49 172.90 L 132.95 173.17 L 132.51 173.60 L 131.96 173.87 L 131.49 173.90 L 130.95 174.17 L 130.51 174.60 L 129.96 174.87 L 129.49 174.90 L 128.95 175.17 L 128.51 175.60 L 126.99 176.15 L 126.30 176.83 L 125.99 176.90 L 125.67 177.20 L 125.67 177.55 L 126.34 177.88 L 132.41 177.88 L 132.79 177.63 L 134.41 177.63 L 134.79 177.38 L 136.16 177.38 L 136.54 177.13 L 137.91 177.13 L 138.34 176.88 L 140.16 176.88 L 140.54 176.63 L 141.96 176.62 L 142.24 176.40 L 142.71 176.37 L 143.79 175.88 L 144.71 175.87 L 144.99 175.65 L 145.51 175.60 L 145.99 175.15 L 146.46 175.12 L 146.79 174.88 L 147.46 174.87 L 147.74 174.65 L 148.26 174.60 L 149.04 174.13 L 149.71 174.12 L 150.09 173.88 L 151.21 173.87 L 151.49 173.65 L 152.01 173.60 L 152.74 173.15 L 153.21 173.12 L 153.54 172.88 L 154.46 172.87 L 154.74 172.65 L 155.21 172.62 L 155.49 172.40 L 155.96 172.37 L 156.24 172.15 L 156.71 172.12 L 156.99 171.90 L 157.46 171.87 L 157.74 171.65 L 159.01 171.35 L 159.74 170.90 L 160.46 170.87 L 160.74 170.65 L 161.26 170.60 L 162.49 169.90 L 162.96 169.87 L 163.51 169.60 L 163.95 169.17 L 164.49 168.90 L 164.96 168.87 L 165.51 168.60 L 165.95 168.17 L 166.49 167.90 L 166.96 167.87 L 167.51 167.60 L 168.20 166.92 L 169.01 166.60 L 169.70 165.92 L 170.05 165.83 L 172.20 163.92 L 172.55 163.83 L 172.83 163.55 L 172.92 163.20 L 175.58 160.55 L 175.92 159.70 L 176.33 159.30 L 176.42 158.95 L 176.85 158.51 L 177.17 157.70 L 177.60 157.26 L 177.87 156.71 L 177.90 156.24 L 178.33 155.80 L 178.60 155.26 L 178.63 154.79 L 178.87 154.46 L 178.88 153.54 L 179.13 153.16 L 179.12 152.54 L 178.88 152.16 L 178.87 150.29 L 178.63 149.96 L 178.60 149.24 L 177.60 147.24 L 177.15 146.76 L 176.60 145.24 L 175.92 144.55 L 175.58 143.70 L 174.67 142.80 L 174.58 142.45 L 173.17 140.80 L 172.58 139.70 L 171.17 138.30 L 170.58 137.20 L 170.20 137.08 L 169.92 136.80 L 169.83 136.45 L 168.17 134.80 L 168.08 134.45 L 167.55 133.92 L 167.20 133.83 L 166.92 133.55 L 166.83 133.20 L 164.55 130.92 L 164.20 130.83 L 163.67 130.30 L 163.58 129.95 L 163.20 129.83 L 162.92 129.55 L 162.83 129.20 L 162.55 128.92 L 162.20 128.83 L 162.08 128.45 L 161.55 127.92 L 161.20 127.83 L 160.92 127.55 L 160.83 127.20 L 159.30 125.67 L 158.95 125.58 L 158.30 124.92 L 157.95 124.83 L 156.05 122.92 L 155.20 122.58 L 155.08 122.20 L 154.80 121.92 L 154.45 121.83 L 153.55 120.92 L 153.20 120.83 L 152.55 120.17 L 152.20 120.08 L 151.80 119.67 L 151.45 119.58 L 150.80 118.92 L 149.95 118.58 L 148.76 117.65 L 147.26 116.90 L 146.49 116.85 L 146.01 116.40 L 145.01 115.90 L 144.49 115.85 L 142.26 114.65 L 141.79 114.62 L 141.51 114.40 L 141.04 114.37 L 140.76 114.15 L 140.29 114.12 L 139.91 113.88 L 135.49 113.90 Z M160.45 193.92 L 160.21 194.12 L 159.04 194.13 L 158.76 194.35 L 158.29 194.38 L 157.21 194.87 L 156.24 194.90 L 153.74 196.15 L 153.26 196.60 L 152.45 196.92 L 151.80 197.58 L 151.45 197.67 L 150.30 198.83 L 149.95 198.92 L 148.92 199.95 L 148.83 200.30 L 147.92 201.20 L 147.83 201.55 L 147.17 202.20 L 146.60 203.51 L 146.17 203.95 L 145.90 204.49 L 145.60 205.76 L 145.15 206.49 L 145.12 206.96 L 144.88 207.29 L 144.87 208.21 L 144.63 208.54 L 144.63 209.91 L 144.38 210.34 L 144.38 213.41 L 144.62 213.79 L 144.63 215.16 L 144.87 215.54 L 144.88 216.71 L 145.10 216.99 L 145.15 217.51 L 145.60 218.24 L 145.63 218.71 L 145.87 219.04 L 145.90 219.76 L 146.83 220.95 L 147.17 221.80 L 148.58 223.45 L 149.17 224.55 L 149.55 224.67 L 150.70 225.83 L 151.05 225.92 L 151.95 226.83 L 152.76 227.15 L 153.20 227.58 L 153.74 227.85 L 154.26 227.90 L 154.70 228.33 L 155.74 228.85 L 156.46 228.88 L 156.74 229.10 L 157.26 229.15 L 157.99 229.60 L 158.96 229.63 L 159.34 229.88 L 165.16 229.88 L 165.54 229.63 L 166.51 229.60 L 167.24 229.15 L 167.71 229.12 L 168.04 228.88 L 168.76 228.85 L 169.80 228.33 L 170.24 227.90 L 170.71 227.87 L 171.26 227.60 L 171.70 227.17 L 172.55 226.83 L 173.45 225.92 L 173.80 225.83 L 176.08 223.55 L 176.17 223.20 L 177.58 221.55 L 177.90 220.74 L 178.35 220.26 L 179.10 218.76 L 179.15 218.24 L 179.60 217.51 L 179.63 216.79 L 179.88 216.41 L 179.88 215.04 L 180.13 214.66 L 180.13 209.34 L 179.88 208.96 L 179.88 207.59 L 179.63 207.21 L 179.62 206.54 L 178.90 205.26 L 178.87 204.79 L 178.60 204.24 L 178.17 203.80 L 177.85 202.99 L 176.92 201.80 L 176.83 201.45 L 175.92 200.55 L 175.83 200.20 L 174.55 198.92 L 174.20 198.83 L 173.55 197.92 L 173.20 197.83 L 172.55 197.17 L 171.24 196.60 L 170.76 196.15 L 169.49 195.60 L 169.01 195.15 L 168.54 195.12 L 168.21 194.88 L 167.54 194.87 L 167.26 194.65 L 166.79 194.62 L 165.71 194.13 L 164.34 194.13 L 163.91 193.88 L 160.49 193.90 Z M96.95 194.17 L 95.96 194.62 L 95.29 194.63 L 94.96 194.87 L 94.24 194.90 L 92.24 195.90 L 91.55 196.58 L 91.20 196.67 L 89.67 198.20 L 89.60 198.51 L 89.17 198.95 L 88.90 199.49 L 88.87 199.96 L 88.65 200.24 L 88.62 200.71 L 88.13 201.79 L 88.13 205.21 L 88.35 205.49 L 88.38 205.96 L 88.60 206.24 L 88.92 207.55 L 89.58 208.20 L 89.67 208.55 L 91.20 210.08 L 91.55 210.17 L 92.20 210.83 L 93.01 211.15 L 93.45 211.58 L 93.99 211.85 L 94.51 211.90 L 94.95 212.33 L 95.99 212.85 L 96.71 212.88 L 96.99 213.10 L 97.51 213.15 L 98.74 213.85 L 99.26 213.90 L 99.80 214.17 L 100.24 214.60 L 101.51 215.15 L 101.95 215.58 L 102.30 215.67 L 103.83 217.20 L 104.10 217.74 L 104.15 218.26 L 104.62 219.04 L 104.62 220.96 L 103.58 223.30 L 102.30 224.58 L 101.71 224.87 L 101.24 224.90 L 100.96 225.12 L 100.49 225.15 L 99.71 225.62 L 98.79 225.63 L 98.41 225.88 L 96.59 225.88 L 96.21 225.63 L 95.04 225.62 L 94.26 225.15 L 93.79 225.12 L 93.46 224.88 L 92.49 224.85 L 89.99 223.60 L 89.51 223.15 L 89.04 223.12 L 88.59 222.88 L 87.92 223.45 L 87.60 224.26 L 87.17 224.70 L 86.90 225.24 L 86.88 226.46 L 87.99 227.35 L 88.99 227.85 L 89.51 227.90 L 91.24 228.85 L 91.96 228.88 L 92.24 229.10 L 92.76 229.15 L 93.49 229.60 L 94.46 229.63 L 94.84 229.88 L 100.66 229.88 L 101.04 229.63 L 102.01 229.60 L 103.24 228.90 L 103.71 228.87 L 104.26 228.60 L 104.70 228.17 L 105.55 227.83 L 107.83 225.55 L 108.15 224.74 L 108.60 224.26 L 108.63 223.79 L 108.87 223.46 L 108.88 222.79 L 109.10 222.51 L 109.13 221.79 L 109.38 221.41 L 109.38 218.09 L 109.13 217.71 L 109.12 217.04 L 108.88 216.71 L 108.87 216.04 L 108.65 215.76 L 108.60 215.24 L 107.67 214.05 L 107.58 213.70 L 106.80 212.92 L 106.45 212.83 L 105.30 211.67 L 104.95 211.58 L 104.55 211.17 L 103.96 210.88 L 103.49 210.85 L 103.05 210.42 L 102.01 209.90 L 100.99 209.85 L 99.26 208.90 L 98.74 208.85 L 97.01 207.90 L 96.49 207.85 L 95.30 206.92 L 94.95 206.83 L 93.92 205.80 L 93.85 205.49 L 93.42 205.05 L 93.15 204.51 L 93.12 204.04 L 92.88 203.66 L 92.88 202.29 L 93.10 202.01 L 93.15 201.49 L 94.08 200.30 L 94.17 199.95 L 94.55 199.83 L 95.20 199.17 L 95.79 198.88 L 96.46 198.87 L 96.84 198.63 L 97.71 198.62 L 98.09 198.38 L 100.41 198.38 L 100.79 198.62 L 101.91 198.63 L 102.29 198.87 L 103.21 198.88 L 103.49 199.10 L 104.01 199.15 L 104.74 199.60 L 105.21 199.63 L 106.29 200.12 L 107.41 200.13 L 107.60 200.01 L 108.87 197.29 L 108.01 196.40 L 107.01 195.90 L 106.49 195.85 L 105.26 195.15 L 104.79 195.12 L 104.46 194.88 L 103.29 194.87 L 102.96 194.63 L 102.29 194.62 L 102.01 194.40 L 101.29 194.37 L 100.91 194.13 L 96.99 194.15 Z M118.20 194.42 L 117.67 194.95 L 117.38 195.59 L 117.38 228.41 L 117.62 228.79 L 117.65 229.26 L 118.04 229.62 L 121.51 229.60 L 122.13 228.91 L 122.13 217.59 L 122.42 216.95 L 123.09 216.63 L 128.96 216.62 L 129.29 216.38 L 130.21 216.37 L 130.54 216.13 L 131.41 216.13 L 131.79 215.88 L 132.71 215.87 L 133.30 215.58 L 133.74 215.15 L 134.55 214.83 L 136.45 212.92 L 136.83 212.80 L 137.15 211.99 L 137.58 211.55 L 137.85 211.01 L 137.88 210.54 L 138.15 209.99 L 138.60 209.51 L 138.63 208.79 L 138.88 208.41 L 138.88 207.29 L 139.13 206.91 L 139.13 203.59 L 138.88 203.21 L 138.85 201.74 L 137.08 198.45 L 135.30 196.67 L 132.51 195.15 L 132.04 195.12 L 131.71 194.88 L 130.79 194.87 L 130.46 194.63 L 129.29 194.62 L 128.91 194.38 L 118.24 194.40 Z M188.95 194.42 L 188.42 194.70 L 188.13 195.34 L 188.13 228.66 L 188.42 229.30 L 188.84 229.63 L 192.41 229.63 L 192.85 229.26 L 192.88 217.59 L 193.17 216.95 L 193.84 216.63 L 198.91 216.63 L 199.55 216.92 L 199.83 217.20 L 200.17 218.05 L 200.83 218.70 L 201.15 219.51 L 201.83 220.20 L 202.15 221.01 L 202.58 221.45 L 202.92 222.30 L 203.58 222.95 L 203.92 223.80 L 204.83 224.95 L 205.15 225.76 L 205.58 226.20 L 205.92 227.05 L 206.58 227.70 L 206.92 228.55 L 207.95 229.58 L 212.51 229.60 L 212.63 228.84 L 212.35 228.24 L 211.92 227.80 L 211.60 226.99 L 211.15 226.51 L 210.58 225.20 L 209.92 224.55 L 209.60 223.74 L 209.17 223.30 L 208.83 222.45 L 208.17 221.80 L 207.58 220.45 L 206.92 219.80 L 206.83 219.20 L 205.92 218.30 L 205.35 216.99 L 204.90 216.51 L 204.87 215.79 L 204.66 215.52 L 205.95 214.17 L 206.30 214.08 L 208.08 212.30 L 208.15 211.99 L 208.58 211.55 L 208.85 211.01 L 208.90 210.49 L 209.60 209.26 L 209.63 208.79 L 209.87 208.46 L 209.88 206.84 L 210.13 206.41 L 210.13 204.09 L 209.88 203.66 L 209.87 202.04 L 208.60 199.49 L 208.17 199.05 L 208.08 198.70 L 206.30 196.92 L 205.95 196.83 L 205.30 196.17 L 204.71 195.88 L 204.24 195.85 L 202.46 194.88 L 201.29 194.87 L 200.96 194.63 L 199.79 194.62 L 199.41 194.38 L 188.99 194.40 Z M218.45 194.42 L 217.88 195.04 L 217.88 198.16 L 218.49 198.85 L 226.41 198.88 L 226.85 199.24 L 226.88 199.71 L 227.13 200.09 L 227.13 228.96 L 227.79 229.62 L 231.26 229.60 L 231.60 229.26 L 231.63 228.79 L 231.88 228.41 L 231.88 199.54 L 232.59 198.88 L 240.51 198.85 L 241.12 198.21 L 241.10 194.99 L 240.41 194.38 L 218.49 194.40 Z M160.20 198.67 L 159.96 198.87 L 158.84 198.88 L 158.46 199.12 L 157.99 199.15 L 156.76 199.85 L 156.24 199.90 L 155.05 200.83 L 154.70 200.92 L 153.80 201.83 L 153.45 201.92 L 152.17 203.20 L 152.08 203.55 L 151.15 204.74 L 150.65 205.74 L 150.60 206.26 L 150.17 206.70 L 149.90 207.24 L 149.87 207.96 L 149.63 208.29 L 149.62 209.21 L 149.40 209.49 L 149.37 209.96 L 149.13 210.34 L 149.13 213.71 L 149.37 214.04 L 149.38 214.71 L 149.62 215.04 L 149.63 215.71 L 149.85 215.99 L 150.15 217.26 L 150.60 217.74 L 151.15 219.26 L 151.83 219.95 L 151.92 220.30 L 154.45 222.83 L 154.80 222.92 L 155.99 223.85 L 156.46 223.88 L 157.01 224.15 L 157.49 224.60 L 157.96 224.63 L 158.29 224.87 L 159.46 224.88 L 159.79 225.12 L 160.96 225.13 L 161.34 225.38 L 163.66 225.38 L 164.04 225.13 L 164.96 225.12 L 165.29 224.88 L 166.46 224.87 L 168.76 223.85 L 169.95 222.92 L 170.30 222.83 L 172.83 220.30 L 173.17 219.45 L 173.85 218.76 L 173.90 218.24 L 174.60 217.01 L 174.63 216.54 L 174.87 216.21 L 174.88 215.54 L 175.12 215.21 L 175.13 214.29 L 175.37 213.96 L 175.38 212.79 L 175.63 212.41 L 175.62 211.54 L 175.38 211.16 L 175.37 210.04 L 175.13 209.71 L 175.12 208.79 L 174.88 208.46 L 174.87 207.79 L 174.65 207.51 L 174.60 206.99 L 174.15 206.51 L 173.85 205.24 L 173.17 204.55 L 172.83 203.70 L 170.05 200.92 L 169.20 200.58 L 168.51 199.90 L 167.99 199.85 L 166.71 199.13 L 166.04 199.12 L 165.66 198.88 L 164.54 198.87 L 164.21 198.63 L 160.24 198.65 Z M122.95 198.92 L 122.42 199.20 L 122.13 199.84 L 122.15 211.26 L 122.70 211.83 L 123.21 211.88 L 123.59 212.13 L 127.41 212.13 L 127.79 211.88 L 129.66 211.88 L 130.04 211.63 L 130.51 211.60 L 131.70 210.67 L 132.05 210.58 L 133.58 209.05 L 133.87 208.46 L 133.88 207.79 L 134.10 207.51 L 134.13 207.04 L 134.38 206.66 L 134.38 204.09 L 134.13 203.71 L 134.12 203.04 L 133.90 202.76 L 133.87 202.29 L 133.60 201.74 L 131.80 199.92 L 130.21 199.13 L 129.29 199.12 L 128.91 198.88 L 122.99 198.90 Z M193.70 198.92 L 193.15 199.24 L 193.12 199.96 L 192.88 200.34 L 192.88 210.91 L 193.17 211.55 L 193.49 211.85 L 194.21 211.88 L 194.59 212.13 L 198.16 212.13 L 198.59 211.88 L 200.46 211.87 L 200.74 211.65 L 201.26 211.60 L 202.26 211.10 L 203.20 210.17 L 203.51 210.10 L 203.83 209.80 L 203.90 209.49 L 204.33 209.05 L 204.87 207.96 L 204.88 207.04 L 205.13 206.66 L 205.13 204.09 L 204.88 203.71 L 204.87 202.79 L 204.58 202.20 L 203.92 201.55 L 203.83 201.20 L 202.55 199.92 L 200.96 199.13 L 200.04 199.12 L 199.66 198.88 L 193.74 198.90 Z M137.70 234.67 L 137.41 234.88 L 132.09 234.88 L 131.66 235.13 L 128.09 235.13 L 127.71 235.37 L 125.09 235.38 L 124.66 235.63 L 120.09 235.63 L 119.66 235.88 L 99.59 235.88 L 99.16 236.13 L 97.45 236.17 L 96.90 236.74 L 96.87 237.46 L 96.66 237.73 L 96.88 238.09 L 96.88 245.16 L 97.13 245.59 L 97.13 249.41 L 97.38 249.84 L 97.38 251.91 L 97.13 252.29 L 97.13 254.41 L 96.88 254.84 L 96.88 261.41 L 97.29 261.87 L 228.51 261.85 L 228.87 261.46 L 228.88 260.09 L 229.13 259.66 L 229.13 255.84 L 228.88 255.46 L 228.88 254.34 L 228.63 253.96 L 228.62 253.29 L 228.40 253.01 L 228.37 252.54 L 228.13 252.16 L 228.13 248.34 L 228.37 247.96 L 228.38 247.29 L 228.63 246.91 L 228.63 245.79 L 228.88 245.41 L 228.88 241.34 L 229.13 240.91 L 229.13 237.84 L 229.38 237.41 L 229.38 235.34 L 229.05 234.92 L 228.46 234.63 L 226.09 234.63 L 225.66 234.88 L 223.09 234.88 L 222.71 235.12 L 221.29 235.13 L 220.96 235.37 L 219.79 235.38 L 219.41 235.63 L 212.34 235.63 L 211.96 235.38 L 210.59 235.38 L 210.16 235.13 L 207.84 235.13 L 207.41 234.88 L 202.84 234.88 L 202.41 234.63 L 199.59 234.63 L 199.16 234.88 L 195.84 234.88 L 195.46 235.12 L 194.29 235.13 L 193.96 235.37 L 192.79 235.38 L 192.41 235.63 L 190.34 235.63 L 189.91 235.88 L 179.59 235.88 L 179.16 236.13 L 176.09 236.13 L 175.66 236.38 L 172.34 236.38 L 171.91 236.63 L 168.09 236.63 L 167.71 236.38 L 166.54 236.37 L 166.21 236.13 L 165.04 236.12 L 164.71 235.88 L 162.34 235.88 L 161.96 235.63 L 160.84 235.63 L 160.46 235.38 L 159.79 235.37 L 159.46 235.13 L 157.09 235.13 L 156.66 234.88 L 151.09 234.88 L 150.66 234.63 L 137.74 234.65 Z M105.45 240.42 L 105.17 240.70 L 104.88 241.34 L 104.88 252.41 L 105.17 253.05 L 105.51 253.10 L 105.83 252.80 L 106.12 252.21 L 106.13 248.34 L 106.45 247.92 L 107.09 247.63 L 112.66 247.63 L 113.09 247.27 L 112.80 246.67 L 112.24 246.60 L 112.02 246.41 L 111.66 246.63 L 107.59 246.63 L 106.45 246.08 L 106.15 245.76 L 106.12 245.29 L 105.88 244.91 L 106.13 244.41 L 106.17 242.20 L 106.45 241.92 L 107.09 241.63 L 113.46 241.62 L 113.85 241.26 L 113.88 240.84 L 113.41 240.38 L 105.49 240.40 Z M127.20 240.42 L 126.88 240.84 L 126.88 251.66 L 126.66 252.02 L 126.87 252.29 L 126.92 253.05 L 127.51 253.10 L 127.88 252.66 L 127.88 240.84 L 127.55 240.42 L 127.24 240.40 Z M142.20 240.42 L 141.63 241.09 L 141.67 252.80 L 142.27 253.34 L 142.58 253.05 L 142.87 252.46 L 142.88 243.34 L 143.20 242.92 L 143.41 242.88 L 143.83 243.20 L 143.92 243.55 L 144.83 244.45 L 144.92 244.80 L 145.58 245.45 L 146.17 246.80 L 146.55 246.92 L 146.83 247.20 L 146.92 247.55 L 147.58 248.20 L 148.17 249.30 L 148.83 249.95 L 149.17 250.80 L 149.58 250.95 L 150.17 252.05 L 151.49 253.35 L 151.96 253.37 L 152.51 253.10 L 152.88 252.41 L 152.88 241.34 L 152.58 240.70 L 151.99 240.65 L 151.63 241.09 L 151.63 249.66 L 151.23 250.34 L 150.96 250.13 L 150.24 250.10 L 149.92 249.80 L 149.83 249.45 L 149.17 248.80 L 148.85 247.99 L 148.42 247.55 L 148.33 247.20 L 147.67 246.55 L 147.58 246.20 L 146.92 245.55 L 146.83 245.20 L 145.92 244.30 L 145.58 243.45 L 144.92 242.80 L 144.83 242.45 L 143.67 241.30 L 143.58 240.95 L 143.20 240.83 L 142.76 240.40 L 142.24 240.40 Z M166.95 240.42 L 166.38 241.09 L 166.38 252.41 L 166.67 253.05 L 167.34 253.38 L 172.16 253.38 L 172.54 253.13 L 173.46 253.12 L 173.74 252.90 L 174.46 252.87 L 175.01 252.60 L 176.83 250.80 L 176.88 250.29 L 177.15 249.74 L 177.60 249.26 L 177.63 248.29 L 177.87 247.96 L 177.87 245.54 L 177.65 245.26 L 177.60 244.74 L 176.90 243.51 L 176.83 242.95 L 175.55 241.67 L 175.20 241.58 L 174.80 241.17 L 174.21 240.88 L 173.74 240.85 L 173.46 240.63 L 172.99 240.60 L 172.71 240.38 L 166.99 240.40 Z M191.20 240.42 L 190.90 240.74 L 190.87 241.46 L 190.63 241.84 L 190.63 246.16 L 190.88 246.59 L 190.87 246.96 L 190.63 247.34 L 190.63 251.91 L 190.85 252.24 L 190.88 252.71 L 191.17 253.30 L 199.26 253.35 L 199.60 253.01 L 199.63 252.59 L 199.21 252.13 L 192.59 252.13 L 191.92 251.55 L 191.88 248.34 L 192.20 247.67 L 192.84 247.38 L 198.46 247.37 L 198.85 247.01 L 198.88 246.59 L 198.80 246.42 L 198.16 246.13 L 192.45 246.08 L 191.88 245.46 L 191.88 242.34 L 192.59 241.63 L 199.46 241.62 L 199.88 241.16 L 199.58 240.45 L 191.24 240.40 Z M213.45 240.42 L 213.17 240.70 L 212.88 241.34 L 212.88 252.41 L 213.17 253.05 L 213.80 253.08 L 214.12 252.46 L 214.13 249.09 L 214.45 248.67 L 215.54 248.13 L 218.16 248.13 L 218.80 248.42 L 219.83 249.45 L 220.17 250.30 L 220.83 250.95 L 221.15 251.76 L 221.83 252.45 L 221.92 252.80 L 222.24 253.10 L 222.76 253.10 L 222.88 252.91 L 222.85 251.99 L 222.42 251.55 L 222.33 251.20 L 221.90 250.76 L 221.58 249.95 L 221.15 249.51 L 220.88 248.96 L 220.88 248.09 L 222.83 246.55 L 223.62 244.96 L 223.62 243.54 L 222.83 241.95 L 222.01 241.15 L 221.01 240.65 L 220.29 240.62 L 219.96 240.38 L 213.49 240.40 Z M168.45 241.67 L 167.92 241.95 L 167.63 242.59 L 167.63 250.91 L 167.87 251.29 L 167.90 251.76 L 168.34 252.13 L 172.91 252.13 L 173.24 251.90 L 173.71 251.87 L 174.26 251.60 L 175.85 250.01 L 176.12 249.46 L 176.15 248.99 L 176.62 248.21 L 176.65 247.49 L 176.87 247.21 L 176.87 246.54 L 176.63 246.21 L 176.62 245.54 L 176.15 244.76 L 176.12 244.29 L 175.85 243.74 L 174.30 242.17 L 173.71 241.88 L 173.24 241.85 L 172.96 241.63 L 168.49 241.65 Z M214.95 241.67 L 214.45 241.92 L 214.13 242.34 L 214.13 246.41 L 214.45 246.83 L 214.96 246.88 L 215.34 247.13 L 219.91 247.13 L 220.29 246.88 L 220.76 246.85 L 222.13 245.41 L 222.12 243.29 L 221.83 242.70 L 221.30 242.17 L 220.71 241.88 L 220.24 241.85 L 219.91 241.63 L 214.99 241.65 Z"></path>
</svg>